<?xml version="1.0" encoding="utf-8"?>
<!-- Generator: Adobe Illustrator 22.0.1, SVG Export Plug-In . SVG Version: 6.00 Build 0)  -->
<svg version="1.1" id="Capa_1" xmlns="http://www.w3.org/2000/svg" xmlns:xlink="http://www.w3.org/1999/xlink" x="0px" y="0px"
	 viewBox="0 0 100 100" style="enable-background:new 0 0 100 100;" xml:space="preserve">
<style type="text/css">
	.st0{fill:#BFBFBF;}
</style>
<g id="icoCalendario1">
	<g>
		<polygon class="st0" points="87.1,28 12.9,28 12.9,28 87.1,28 87.1,14.3 87.1,14.3 		"/>
		<path class="st0" d="M29.3,78.3c-2.6,0-4.7-2.1-4.7-4.7s2.1-4.7,4.7-4.7S34,71,34,73.6S31.9,78.3,29.3,78.3z M29.3,57.9
			c-2.6,0-4.7-2.1-4.7-4.7c0-2.6,2.1-4.7,4.7-4.7s4.7,2.1,4.7,4.7C34,55.8,31.9,57.9,29.3,57.9z M50,78.3c-2.6,0-4.7-2.1-4.7-4.7
			s2.1-4.7,4.7-4.7s4.7,2.1,4.7,4.7C54.7,76.2,52.6,78.3,50,78.3z M50,57.9c-2.6,0-4.7-2.1-4.7-4.7c0-2.6,2.1-4.7,4.7-4.7
			s4.7,2.1,4.7,4.7C54.7,55.8,52.6,57.9,50,57.9z M70.7,78.3c-2.6,0-4.7-2.1-4.7-4.7s2.1-4.7,4.7-4.7s4.7,2.1,4.7,4.7
			C75.4,76.2,73.3,78.3,70.7,78.3z M70.7,57.9c-2.6,0-4.7-2.1-4.7-4.7c0-2.6,2.1-4.7,4.7-4.7s4.7,2.1,4.7,4.7
			C75.4,55.8,73.3,57.9,70.7,57.9z"/>
		<circle class="st0" cx="29.3" cy="53.2" r="4.7"/>
		<ellipse class="st0" cx="70.7" cy="53.2" rx="4.7" ry="4.7"/>
		<circle class="st0" cx="50" cy="53.2" r="4.7"/>
		<circle class="st0" cx="29.3" cy="73.6" r="4.7"/>
		<ellipse class="st0" cx="70.7" cy="73.6" rx="4.7" ry="4.7"/>
		<circle class="st0" cx="50" cy="73.6" r="4.7"/>
		<path class="st0" d="M74.1,6.3V0h-8.7v6.3H34.6V0h-8.7v6.3h-21V100H95V6.3H74.1z M87.1,92.1H12.9V35.9h74.3l0,0L87.1,92.1
			L87.1,92.1z M87.1,28H12.9l0,0V14.3H26v8.5h8.7v-8.5l0,0h30.8v8.5h8.7v-8.5l0,0h13.1l0,0V28H87.1z"/>
		<rect x="74.1" y="14.3" class="st0" width="0" height="8.5"/>
		<rect x="34.6" y="14.3" class="st0" width="0" height="8.5"/>
	</g>
</g>
<g id="Capa_1_1_">
</g>
</svg>
