<?xml version="1.0" encoding="utf-8"?>
<!-- Generator: Adobe Illustrator 22.0.1, SVG Export Plug-In . SVG Version: 6.00 Build 0)  -->
<svg version="1.1" id="Capa_1" xmlns="http://www.w3.org/2000/svg" xmlns:xlink="http://www.w3.org/1999/xlink" x="0px" y="0px"
	 viewBox="0 0 200 200" style="enable-background:new 0 0 200 200;" xml:space="preserve">
<path d="M185.6,125.4c-2.8,0-5,2.2-5,5v44.2c0,8.2-6.7,14.9-14.9,14.9H25.9c-8.2,0-14.9-6.7-14.9-14.9V44.8
	c0-8.2,6.7-14.9,14.9-14.9h44.2c2.8,0,5-2.2,5-5c0-2.7-2.2-5-5-5H25.9C12.2,19.9,1,31.1,1,44.8v129.8c0,13.7,11.2,24.9,24.9,24.9
	h139.8c13.7,0,24.9-11.2,24.9-24.9v-44.2C190.6,127.6,188.3,125.4,185.6,125.4z"/>
<path d="M186.6,7.1c-8.8-8.8-22.9-8.8-31.7,0L66,96c-0.6,0.6-1,1.4-1.3,2.2l-11.7,42.2c-0.5,1.7,0,3.6,1.3,4.9
	c1.3,1.3,3.1,1.8,4.9,1.3l42.2-11.7c0.8-0.2,1.6-0.7,2.2-1.3l88.9-88.9c8.7-8.8,8.7-22.9,0-31.7L186.6,7.1z M76.9,99.2l72.7-72.7
	l23.5,23.5l-72.7,72.7L76.9,99.2z M72.2,108.6l18.7,18.7L65,134.5L72.2,108.6z M185.4,37.6l-5.3,5.3l-23.5-23.5l5.3-5.3
	c4.9-4.9,12.7-4.9,17.6,0l5.8,5.8C190.3,24.8,190.3,32.7,185.4,37.6z"/>
</svg>
