<?xml version="1.0" encoding="utf-8"?>
<!-- Generator: Adobe Illustrator 22.0.1, SVG Export Plug-In . SVG Version: 6.00 Build 0)  -->
<svg version="1.1" id="Capa_1" xmlns="http://www.w3.org/2000/svg" xmlns:xlink="http://www.w3.org/1999/xlink" x="0px" y="0px"
	 viewBox="0 0 46 35" style="enable-background:new 0 0 46 35;" xml:space="preserve">
<title>btn_hamburguer</title>
<g id="Capa_2_1_">
	<g id="Capa_1-2">
		<g id="Capa_2-2">
			<g id="Capa_1-2-2">
				<g id="Capa_2-2-2">
					<g id="Capa_1-2-2-2">
						<path id="btn_hamburguer.svg" d="M2.8,29.5h40.5c1.5,0.1,2.7,1.4,2.6,2.9c-0.1,1.4-1.2,2.5-2.6,2.6H2.8
							c-1.5-0.1-2.7-1.4-2.6-2.9C0.2,30.7,1.4,29.6,2.8,29.5z M2.8,14.5h40.5c1.5,0,2.8,1.2,2.8,2.8S44.8,20,43.3,20l0,0H2.8
							C1.2,20,0,18.7,0,17.2S1.2,14.5,2.8,14.5L2.8,14.5z M2.8,0h40.5c1.5,0.1,2.7,1.4,2.6,2.9c-0.1,1.4-1.2,2.5-2.6,2.6H2.8
							C1.2,5.4,0.1,4.1,0.2,2.6C0.2,1.2,1.4,0.1,2.8,0z"/>
					</g>
				</g>
			</g>
		</g>
	</g>
</g>
</svg>
