<?xml version="1.0" encoding="utf-8"?>
<!-- Generator: Adobe Illustrator 22.0.1, SVG Export Plug-In . SVG Version: 6.00 Build 0)  -->
<svg version="1.1" id="Capa_1" xmlns="http://www.w3.org/2000/svg" xmlns:xlink="http://www.w3.org/1999/xlink" x="0px" y="0px"
	 viewBox="0 0 40 40" style="enable-background:new 0 0 40 40;" xml:space="preserve">
<g id="Grupo_12" transform="translate(0 0)">
	<g id="Grupo_11" transform="translate(0 0)">
		<path id="Trazado_118" d="M37.6,7.6h-1.9V4.8c0-0.6-0.4-1-1-1l0,0H17L16.2,3c-0.6-0.6-1.5-1-2.4-1H2.4C1.1,2,0,3.1,0,4.5
			c0,0,0,0,0,0v30.6c0,1.3,1.1,2.4,2.4,2.4h35.1c1.3,0,2.4-1.1,2.4-2.4V10C40,8.7,38.9,7.6,37.6,7.6z M33.7,5.8v1.7H21.3
			c-0.4,0-0.7-0.1-1-0.4L19,5.8L33.7,5.8z M38,35.1c0,0.3-0.2,0.5-0.5,0.5c0,0,0,0,0,0H2.4c-0.3,0-0.5-0.2-0.5-0.5l0,0V15.2h32.7
			c0.5,0.1,1-0.3,1.1-0.9s-0.3-1-0.9-1.1c-0.1,0-0.2,0-0.2,0H2V4.5C2,4.2,2.2,4,2.4,4h11.3c0.4,0,0.7,0.1,1,0.4l4.2,4.2l0,0
			c0.6,0.6,1.5,1,2.4,1h16.2c0.3,0,0.5,0.2,0.5,0.5l0,0L38,35.1L38,35.1z"/>
	</g>
</g>
</svg>
