<?xml version="1.0" encoding="utf-8"?>
<!-- Generator: Adobe Illustrator 22.0.1, SVG Export Plug-In . SVG Version: 6.00 Build 0)  -->
<svg version="1.1" id="Capa_1" xmlns="http://www.w3.org/2000/svg" xmlns:xlink="http://www.w3.org/1999/xlink" x="0px" y="0px"
	 viewBox="0 0 40 40" style="enable-background:new 0 0 40 40;" xml:space="preserve">
<g id="Grupo_2" transform="translate(3.394 5.906)">
	<g id="Grupo_1">
		<path id="Trazado_113" d="M25.9,11.7c-0.2-0.5-0.8-0.7-1.2-0.5c-0.5,0.2-0.7,0.7-0.5,1.2c2.1,5.3-0.5,11.3-5.8,13.4
			C13,28,7,25.3,4.9,20C2.8,14.7,5.4,8.7,10.7,6.6c2.4-1,5.2-1,7.6,0c0.5,0.2,1,0,1.2-0.5s0-1-0.5-1.2c0,0,0,0-0.1,0
			C12.7,2.3,5.6,5.4,3.1,11.7S3.7,25.1,10,27.6s13.4-0.6,15.9-6.9C27,17.8,27,14.6,25.9,11.7L25.9,11.7z"/>
	</g>
</g>
<g id="Grupo_4" transform="translate(0 2.512)">
	<g id="Grupo_3">
		<path id="Trazado_114" d="M35.1,14.7c-0.2-0.5-0.7-0.8-1.2-0.6c-0.5,0.2-0.7,0.6-0.6,1.1c2.4,8.5-2.5,17.4-11,19.8
			C13.8,37.4,5,32.5,2.5,24S5,6.6,13.5,4.2c2.9-0.8,5.9-0.8,8.8,0c0.5,0.2,1-0.1,1.2-0.6s-0.1-1-0.6-1.2c0,0,0,0-0.1,0
			C13.3-0.3,3.4,5.2,0.7,14.7S3.5,34.1,13,36.8S32.4,34,35.1,24.5C36,21.3,36,17.9,35.1,14.7z"/>
	</g>
</g>
<g id="Grupo_6" transform="translate(6.788 9.3)">
	<g id="Grupo_5">
		<path id="Trazado_115" d="M17.7,12.2c0-0.5-0.5-0.9-1-0.9c-0.5,0-0.9,0.5-0.9,1c0,0,0,0,0,0.1c0,0.1,0,0.3,0,0.4
			c0,2.6-2.1,4.7-4.7,4.7c-2.6,0-4.7-2.1-4.7-4.7c0-2.6,2.1-4.7,4.7-4.7c0.1,0,0.3,0,0.4,0c0.5,0.1,1-0.3,1.1-0.8
			c0.1-0.5-0.3-1-0.8-1.1c0,0-0.1,0-0.1,0c-0.2,0-0.4,0-0.6,0c-3.6,0-6.6,3-6.6,6.6c0,3.6,3,6.6,6.6,6.6c3.6,0,6.6-3,6.6-6.6
			c0,0,0,0,0,0C17.7,12.6,17.7,12.4,17.7,12.2z"/>
	</g>
</g>
<g id="Grupo_8" transform="translate(10.402 0)">
	<g id="Grupo_7" transform="translate(0 0)">
		<path id="Trazado_116" d="M29.5,6.4c-0.3-0.7-1-1.2-1.7-1.2h-3.3V1.9c0-1-0.8-1.9-1.9-1.9c-0.5,0-1,0.2-1.3,0.6l-5.5,5.5
			c-0.5,0.5-0.8,1.2-0.8,2v5.3l-7.7,7.7c-0.4,0.3-0.4,0.9-0.1,1.3c0.3,0.4,0.9,0.4,1.3,0.1c0,0,0.1-0.1,0.1-0.1l7.7-7.7h5.3
			c0.8,0,1.5-0.3,2-0.8L29,8.4C29.6,7.9,29.7,7.1,29.5,6.4z M16.8,8.1c0-0.3,0.1-0.5,0.3-0.7l5.5-5.5v3.8l-5.8,5.8L16.8,8.1
			L16.8,8.1z M22.2,12.6c-0.2,0.2-0.4,0.3-0.7,0.3h-3.5l5.8-5.8h3.8L22.2,12.6z"/>
	</g>
</g>
</svg>
