<?xml version="1.0" encoding="utf-8"?>
<!-- Generator: Adobe Illustrator 22.0.1, SVG Export Plug-In . SVG Version: 6.00 Build 0)  -->
<svg version="1.1" id="Capa_1" xmlns="http://www.w3.org/2000/svg" xmlns:xlink="http://www.w3.org/1999/xlink" x="0px" y="0px"
	 viewBox="0 0 200 200" style="enable-background:new 0 0 200 200;" xml:space="preserve">
<style type="text/css">
	.st0{fill:#FF8821;stroke:#FF8821;}
</style>
<path class="st0" d="M100,181c-44.7,0-81-36.3-81-81s36.3-81,81-81s81,36.3,81,81S144.7,181,100,181z M100,1C45.4,1,1,45.4,1,100
	s44.4,99,99,99s99-44.4,99-99S154.6,1,100,1z"/>
<path class="st0" d="M100,43c-6.6,0-12,5.4-12,12s5.4,12,12,12s12-5.4,12-12S106.6,43,100,43z"/>
<path class="st0" d="M100,85c-5,0-9,4-9,9v54c0,5,4,9,9,9s9-4,9-9V94C109,89,105,85,100,85z"/>
</svg>
